<?xml version="1.0" standalone="no"?>
<!DOCTYPE svg PUBLIC "-//W3C//DTD SVG 20010904//EN"
 "http://www.w3.org/TR/2001/REC-SVG-20010904/DTD/svg10.dtd">
<svg version="1.0" xmlns="http://www.w3.org/2000/svg"
 width="443.000000pt" height="270.000000pt" viewBox="0 0 443.000000 270.000000"
 preserveAspectRatio="xMidYMid meet">
<metadata>
Created by potrace 1.13, written by Peter Selinger 2001-2015
</metadata>
<g transform="translate(0.000000,270.000000) scale(0.100000,-0.100000)"
fill="#000000" stroke="none">
<path d="M2090 2553 c-19 -2 -46 -6 -60 -9 l-24 -5 32 -21 c45 -28 33 -34 -19
-9 -51 25 -68 25 -134 2 l-49 -17 44 -28 c40 -24 42 -26 15 -21 -16 4 -46 13
-66 22 -36 15 -38 14 -126 -29 -98 -49 -213 -125 -283 -187 l-45 -40 38 -1
c50 0 49 -22 -3 -55 -22 -14 -59 -46 -82 -72 -63 -68 -70 -74 -75 -69 -2 2 5
23 17 46 34 67 16 57 -34 -19 -91 -136 -164 -309 -198 -466 -16 -79 -16 -371
0 -450 45 -207 131 -386 270 -558 l56 -69 18 36 c10 20 22 36 26 36 4 0 6 -24
4 -53 -3 -39 0 -57 12 -66 14 -12 16 -5 16 69 0 67 3 85 18 96 39 30 43 20 36
-104 -6 -102 -5 -119 10 -131 15 -12 16 -2 16 127 l0 140 31 7 c17 4 33 4 37
0 4 -4 7 -81 7 -172 0 -122 3 -167 12 -170 10 -4 13 37 15 169 l3 173 35 0 35
0 3 -197 c3 -262 21 -262 24 -1 3 176 5 198 20 201 13 2 22 -12 37 -63 17 -55
21 -94 21 -220 0 -188 18 -223 22 -43 l3 123 24 -70 c13 -38 30 -75 37 -81 9
-7 14 -32 14 -68 0 -31 5 -56 10 -56 6 0 10 33 10 78 0 78 0 78 40 117 l40 39
0 -127 c0 -78 4 -127 10 -127 6 0 10 36 10 89 0 50 3 92 8 94 4 3 22 2 40 0
l32 -5 0 -94 c0 -56 4 -94 10 -94 6 0 10 37 10 90 0 73 3 90 15 90 20 0 19 10
-2 26 -10 7 -14 16 -10 20 4 4 20 -4 34 -19 l27 -26 -23 -25 c-22 -23 -22 -26
-7 -48 9 -13 16 -43 16 -70 0 -41 3 -48 20 -48 17 0 20 7 20 51 0 28 -5 59
-11 71 -9 17 -6 25 16 48 l28 29 -29 25 -29 25 21 15 c12 8 36 49 55 90 28 63
38 75 65 84 31 9 35 7 114 -67 76 -72 80 -78 74 -108 -4 -18 -9 -33 -13 -33
-3 0 -47 41 -98 92 -51 51 -95 89 -99 85 -4 -4 -6 -36 -5 -71 l2 -64 -36 -12
c-46 -15 -46 -33 0 -24 31 5 35 4 35 -15 0 -12 -6 -21 -15 -21 -8 0 -15 -4
-15 -10 0 -5 7 -10 15 -10 12 0 15 -17 15 -90 0 -107 19 -125 22 -20 2 104 2
104 13 112 6 4 22 8 38 8 l27 0 0 -91 c0 -65 3 -90 12 -87 8 3 12 40 12 116 1
62 3 112 7 112 3 0 19 -15 37 -33 30 -31 32 -37 32 -106 0 -54 3 -72 13 -69 8
3 14 36 18 94 3 58 15 120 35 179 l29 90 3 -168 c2 -128 5 -168 15 -164 9 3
12 57 14 208 1 112 2 214 2 227 1 18 7 22 36 22 l35 0 0 -211 c0 -164 3 -210
13 -206 9 3 12 54 12 210 l0 207 38 0 37 0 0 -186 c0 -144 3 -185 13 -181 9 3
12 49 12 185 l0 182 38 0 37 0 0 -156 c0 -120 3 -155 13 -152 9 4 13 45 15
152 l3 147 29 -21 c30 -21 30 -22 30 -121 0 -64 4 -98 10 -94 6 3 10 40 10 81
0 41 4 74 9 74 5 0 17 -20 28 -45 10 -25 21 -45 25 -45 10 0 112 123 158 190
83 123 159 302 192 455 7 35 12 129 12 225 0 173 -8 230 -51 365 -49 152 -167
365 -203 365 -25 0 -35 -17 -20 -35 11 -13 7 -15 -19 -15 -37 0 -37 -4 -10
-49 19 -32 19 -34 2 -53 -14 -15 -15 -22 -5 -36 24 -33 24 -43 2 -100 -27 -66
-40 -85 -40 -56 0 11 5 25 10 30 19 19 -1 42 -43 50 -34 5 -38 8 -22 15 11 4
32 8 46 8 15 1 33 9 40 18 10 11 10 14 2 9 -8 -4 -31 10 -60 38 l-48 46 48
-14 c50 -15 55 -12 32 18 -8 11 -15 27 -15 35 0 9 -14 28 -32 44 l-33 27 32
-17 c17 -10 34 -15 38 -12 3 4 -17 42 -45 85 -28 44 -45 81 -39 83 13 4 67
-34 92 -66 31 -39 37 -26 12 25 -26 51 -87 118 -116 127 -11 4 -19 10 -19 15
0 20 -105 80 -140 81 -19 0 -29 3 -22 6 6 2 12 8 12 13 0 10 -114 65 -188 91
-52 18 -53 18 -72 -1 -11 -11 -26 -20 -34 -20 -8 0 -23 -3 -33 -7 -10 -4 -3 6
15 22 18 15 30 31 25 35 -11 10 -114 28 -206 36 -69 6 -79 5 -92 -12 -13 -17
-14 -18 -15 -1 0 11 -8 17 -25 17 -25 0 -25 -1 -11 -27 7 -16 17 -44 21 -63 6
-31 4 -29 -20 18 -30 59 -45 69 -95 65z m46 -183 c41 -29 44 -30 44 -10 0 27
8 25 43 -7 l30 -28 -6 33 c-6 29 6 47 15 21 2 -7 54 -6 174 5 164 15 173 15
253 -4 131 -32 184 -87 132 -139 -19 -19 -19 -20 5 -36 25 -16 32 -53 13 -72
-9 -9 -4 -22 20 -51 35 -45 37 -52 16 -52 -19 0 -19 -3 5 -51 l21 -40 -21 -30
c-16 -21 -20 -37 -15 -59 4 -16 6 -32 6 -34 -1 -3 -76 -7 -169 -9 l-167 -4 70
17 c39 10 93 19 120 20 l50 2 -30 13 c-42 20 -68 18 -176 -10 -111 -29 -219
-34 -219 -9 0 8 -4 12 -10 9 -5 -3 -10 -24 -10 -45 l0 -38 -67 -8 c-36 -3 -92
-3 -122 2 -53 8 -56 11 -59 39 -5 50 -13 63 -23 38 -7 -20 -16 -23 -57 -23
-27 0 -93 14 -147 30 -107 33 -157 37 -195 15 -25 -14 -25 -14 15 -15 39 0
151 -23 160 -32 3 -3 -74 -4 -170 -4 -96 1 -175 3 -175 6 0 3 9 20 20 37 18
31 19 34 2 62 -16 28 -16 31 3 50 14 17 16 24 7 33 -17 17 -15 41 7 65 14 15
17 23 8 32 -8 8 -3 19 18 41 25 26 27 33 15 41 -13 8 -13 11 3 23 9 7 17 16
17 20 0 3 -8 6 -17 6 -16 1 -16 2 2 16 17 13 18 16 5 24 -23 14 3 35 96 77
137 61 141 62 282 63 133 0 134 0 178 -30z m-747 -339 c15 -10 4 -17 -54 -36
-20 -6 -20 -7 -1 -21 11 -8 43 -14 70 -15 l51 0 -40 -20 c-22 -11 -57 -30 -77
-42 l-37 -23 24 -29 c28 -35 31 -60 10 -81 -9 -10 -15 -11 -15 -4 0 13 -46
135 -61 162 -16 30 17 96 55 107 41 12 58 13 75 2z m1450 -298 c22 -14 23 -20
18 -82 -10 -142 -73 -238 -174 -267 -85 -25 -199 -16 -253 20 -51 34 -87 106
-96 194 -9 82 5 104 83 125 73 21 113 21 56 0 -24 -8 -43 -19 -43 -24 0 -12 2
-12 73 12 81 27 213 25 246 -5 12 -11 21 -15 21 -10 -1 16 -27 44 -41 45 -8 1
-3 4 11 9 30 9 67 3 99 -17z m-1171 -1 c-16 -9 -28 -20 -28 -24 0 -11 4 -10
36 7 38 20 166 20 230 0 60 -18 57 -18 50 0 -3 8 -2 15 3 15 22 0 79 -25 100
-44 21 -19 23 -26 17 -86 -8 -86 -46 -163 -98 -197 -51 -35 -167 -43 -250 -19
-96 28 -164 132 -175 273 -5 59 -5 61 23 77 16 8 49 15 74 15 l45 0 -27 -17z
m-338 -74 c51 -35 69 -66 91 -158 23 -96 37 -230 23 -230 -13 1 -42 43 -49 72
-4 16 1 32 15 50 l20 27 -21 58 c-41 109 -79 153 -133 153 -21 0 -27 -7 -37
-40 -8 -26 -9 -50 -3 -71 16 -55 29 -44 29 23 0 71 14 84 53 48 28 -27 28 -36
-3 -44 -39 -10 -30 -28 10 -20 30 5 36 3 46 -20 11 -22 8 -29 -20 -62 -28 -31
-32 -43 -29 -80 l3 -43 -21 26 c-13 16 -23 22 -27 16 -10 -16 69 -112 101
-124 18 -7 34 -7 51 1 28 13 27 14 35 -33 13 -72 -48 -53 -138 43 -82 88 -126
225 -106 331 19 99 48 119 110 77z m1835 -2 c48 -49 47 -194 -4 -302 -61 -131
-230 -254 -214 -157 8 52 10 54 39 42 40 -15 78 5 119 61 40 55 47 89 9 46
l-25 -29 6 36 c8 40 -5 72 -41 103 -23 19 -24 23 -13 48 11 24 17 27 46 23 39
-7 44 9 7 24 l-27 10 23 24 c47 51 80 18 66 -65 -6 -39 6 -55 18 -24 10 25 7
93 -4 115 -16 29 -61 24 -92 -8 -30 -33 -61 -91 -78 -150 -11 -36 -11 -44 4
-58 22 -23 20 -67 -5 -99 -34 -43 -42 -33 -35 42 18 181 65 299 129 327 43 19
44 19 72 -9z m-923 -38 c9 -7 25 -43 37 -79 34 -103 69 -152 136 -184 122 -60
311 -39 394 44 35 35 68 93 105 184 10 26 21 37 35 37 26 0 26 -5 1 -124 -11
-52 -26 -151 -34 -218 -16 -136 -33 -196 -79 -277 -69 -122 -187 -207 -374
-270 -87 -29 -100 -31 -251 -31 -148 0 -163 2 -222 26 -222 90 -372 200 -431
315 -33 65 -58 164 -65 254 -3 44 -17 131 -30 193 -13 63 -24 118 -24 123 0
17 41 9 47 -8 26 -78 85 -183 116 -210 72 -63 234 -91 341 -59 92 28 144 85
183 199 13 39 29 77 35 84 13 17 59 17 80 1z m-246 -940 c44 -20 65 -22 214
-22 104 0 175 4 193 12 15 6 27 9 27 7 0 -7 -111 -61 -140 -68 -18 -5 -31 -21
-49 -62 -19 -45 -28 -55 -48 -55 -20 0 -29 10 -49 54 -21 46 -31 57 -62 66
-45 14 -162 90 -138 90 2 0 25 -10 52 -22z m100 -120 c7 -10 6 -189 -1 -196
-1 -2 -19 0 -39 3 -32 7 -36 10 -36 39 0 20 12 46 35 75 33 42 40 66 19 66 -5
0 -43 -38 -84 -84 -41 -46 -80 -86 -87 -88 -9 -3 -26 38 -28 67 0 3 35 38 78
77 73 69 78 71 107 61 17 -5 33 -15 36 -20z"/>
<path d="M2529 1696 c-57 -12 -105 -37 -126 -65 -16 -22 -11 -24 23 -6 40 21
44 19 44 -15 0 -44 45 -90 96 -97 36 -5 45 -1 78 28 36 31 38 36 33 77 -5 43
-4 43 22 37 14 -4 36 -16 49 -28 l24 -22 -4 35 c-2 29 -9 38 -38 52 -41 21
-118 22 -201 4z"/>
<path d="M1671 1692 c-21 -10 -38 -28 -44 -45 -11 -34 0 -49 17 -25 13 18 57
38 84 38 12 0 13 -3 4 -12 -41 -41 24 -138 93 -138 49 0 105 53 105 99 0 35
14 39 49 15 22 -16 23 -15 19 2 -11 61 -245 109 -327 66z"/>
<path d="M1980 1077 c0 -24 56 -81 99 -100 66 -29 224 -36 270 -12 18 9 29 20
25 24 -32 28 -394 109 -394 88z"/>
</g>
</svg>
